<?xml version="1.0" encoding="UTF-8" standalone="no"?>
<!-- Created with Inkscape (http://www.inkscape.org/) -->

<svg
   width="210mm"
   height="297mm"
   viewBox="0 0 210 297"
   version="1.1"
   id="svg1"
   xml:space="preserve"
   sodipodi:docname="drawing2.svg"
   inkscape:version="1.4.2 (ebf0e940d0, 2025-05-08)"
   xmlns:inkscape="http://www.inkscape.org/namespaces/inkscape"
   xmlns:sodipodi="http://sodipodi.sourceforge.net/DTD/sodipodi-0.dtd"
   xmlns="http://www.w3.org/2000/svg"
   xmlns:svg="http://www.w3.org/2000/svg"><sodipodi:namedview
     id="namedview1"
     pagecolor="#505050"
     bordercolor="#eeeeee"
     borderopacity="1"
     inkscape:showpageshadow="0"
     inkscape:pageopacity="0"
     inkscape:pagecheckerboard="0"
     inkscape:deskcolor="#505050"
     inkscape:document-units="mm"
     inkscape:zoom="0.88223485"
     inkscape:cx="478.89743"
     inkscape:cy="483.43137"
     inkscape:window-width="1536"
     inkscape:window-height="792"
     inkscape:window-x="0"
     inkscape:window-y="0"
     inkscape:window-maximized="1"
     inkscape:current-layer="layer1" /><defs
     id="defs1" /><g
     inkscape:label="Layer 1"
     inkscape:groupmode="layer"
     id="layer1"><path
       style="fill:#111bbb;stroke-width:0.679882"
       d="m 34.653213,88.030065 c 0,-0.327701 -0.09183,-0.654599 -0.204073,-0.726439 -0.11224,-0.07185 -0.152904,-0.407844 -0.09036,-0.746678 0.09083,-0.492083 0.01914,-0.616045 -0.356269,-0.616045 -0.658057,0 -0.928825,-0.428574 -1.12265,-1.776953 -0.143195,-0.99616 -0.232555,-1.14541 -0.611255,-1.020927 -0.339346,0.111547 -0.443541,0.02387 -0.443541,-0.373235 0,-0.285467 -0.09649,-0.457273 -0.214411,-0.38179 -0.482688,0.308963 -0.963985,-0.17756 -0.963985,-0.974452 0,-0.447585 -0.106055,-0.881676 -0.235679,-0.964646 -0.129624,-0.08297 -0.23568,-0.371185 -0.23568,-0.640476 0,-0.269291 -0.51105,-1.005161 -1.135667,-1.635267 -0.624621,-0.630105 -1.322039,-1.440228 -1.549822,-1.800274 -0.227783,-0.360045 -0.643636,-0.688633 -0.924118,-0.730196 -0.290203,-0.043 -0.546536,-0.285944 -0.594824,-0.563747 -0.04667,-0.268498 -0.269215,-0.707858 -0.494544,-0.976357 -0.766121,-0.912896 -1.014441,-1.924975 -0.735523,-2.997763 0.180037,-0.692464 0.182113,-1.18163 0.007,-1.658545 -0.136571,-0.372028 -0.180912,-0.99423 -0.09854,-1.382671 0.106449,-0.501952 0.02692,-0.846848 -0.274901,-1.192263 -0.50994,-0.583584 -0.558846,-3.311956 -0.08039,-4.485033 0.459615,-1.126888 0.291277,-1.599242 -1.089879,-3.058191 -1.482193,-1.565677 -1.575248,-2.085805 -0.695024,-3.884825 0.701914,-1.434589 1.53853,-4.458877 1.53853,-5.561642 v -0.798196 h -6.742074 c -6.333673,0 -6.73098,0.02588 -6.558932,0.427156 0.100729,0.234936 0.228459,0.889404 0.283846,1.454375 0.05539,0.56497 0.249459,1.15508 0.43127,1.311355 0.198607,0.17071 0.330568,0.746262 0.330568,1.441777 0,0.753009 0.152193,1.361108 0.43542,1.739758 0.239481,0.320165 0.511287,0.911638 0.604013,1.314385 0.09273,0.402747 0.464121,1.117142 0.825322,1.587544 0.479245,0.624135 0.607104,0.986948 0.473108,1.34249 -0.311951,0.827725 -0.242778,2.011218 0.126122,2.157829 0.510769,0.202995 1.306884,1.976706 1.306884,2.911685 0,0.592416 0.197105,1.013946 0.713883,1.526718 0.642645,0.637662 0.698948,0.811493 0.564221,1.741972 -0.133265,0.920389 -0.0769,1.103459 0.514482,1.671094 0.595842,0.571912 0.660173,0.785813 0.625539,2.079944 -0.02123,0.793361 0.06234,1.507085 0.185711,1.586055 0.123373,0.07897 0.224315,0.390264 0.224315,0.691766 0,0.34954 0.390436,0.892868 1.077457,1.499382 0.592601,0.523159 1.340455,1.203634 1.661897,1.512167 0.321443,0.308533 0.770672,0.560969 0.998289,0.560969 0.413062,0 1.73536,1.652946 2.37363,2.96717 0.185423,0.381791 0.468851,0.694166 0.629841,0.694166 0.16099,0 0.413493,0.379037 0.561117,0.842305 0.147625,0.463268 0.539833,1.256543 0.871573,1.762834 0.546648,0.834276 0.576196,0.997773 0.315346,1.744879 -0.201684,0.577652 -0.213489,0.901332 -0.03945,1.081588 0.171961,0.178096 0.173384,0.402343 0.0046,0.728923 -0.338361,0.654792 -0.395165,0.637439 2.872161,0.877253 5.025451,0.368856 4.935381,0.374536 4.935381,-0.310928 z"
       id="path18" /><path
       style="fill:#000000;stroke-width:0.679882"
       d="m 51.689462,126.82288 c 0.287021,-0.33724 0.866537,-0.96157 1.287814,-1.3874 1.276746,-1.29055 1.000778,-2.77966 -0.641242,-3.46011 -0.819321,-0.33953 -0.955124,-0.50261 -0.989906,-1.18878 -0.02217,-0.43739 -0.05175,-0.98516 -0.06572,-1.21726 -0.01398,-0.2321 -0.154917,-0.55612 -0.313206,-0.72006 -0.158289,-0.16394 -0.287799,-0.4164 -0.287799,-0.56103 0,-0.14463 -0.318167,-0.55211 -0.707037,-0.90552 -0.604701,-0.54954 -0.707038,-0.5794 -0.707038,-0.20628 0,1.23606 -2.559262,0.43121 -2.910619,-0.91535 -0.344901,-1.32182 -0.37213,-1.82629 -0.124441,-2.30562 0.407392,-0.78838 0.301668,-1.88315 -0.239472,-2.47972 -0.261979,-0.28882 -0.719453,-1.23696 -1.016609,-2.107 -0.297156,-0.87003 -0.67727,-1.69358 -0.844697,-1.83012 -0.635869,-0.51855 -1.464012,-2.33772 -1.635436,-3.59254 -0.0685,-0.50145 -0.269881,-1.03663 -0.447507,-1.18931 -0.383953,-0.33003 -0.432433,-1.82756 -0.06674,-2.06163 0.1845,-0.1181 0.1845,-0.23827 0,-0.42936 -0.140918,-0.14595 -0.256214,-0.563112 -0.256214,-0.927033 0,-0.539743 -0.189701,-0.75678 -1.029412,-1.177784 -1.15189,-0.57752 -1.908645,-1.331683 -1.913409,-1.906858 -0.0017,-0.210485 -0.34024,-0.502649 -0.752213,-0.649243 -0.989954,-0.352263 -1.145091,-0.546786 -0.789743,-0.990235 0.504591,-0.62969 0.09398,-2.091681 -0.671513,-2.39093 -0.861413,-0.336751 -1.728524,-1.719462 -1.547287,-2.467337 0.153886,-0.635003 0.648479,-0.557697 -6.648554,-1.039153 l -2.393044,-0.157886 -0.353793,0.70452 c -0.647297,1.288986 -1.443154,1.869391 -2.323646,1.694602 l -0.785245,-0.155886 0.733606,0.681306 c 0.403483,0.374715 0.860404,1.086797 1.015379,1.582403 0.213337,0.682247 0.465855,0.964018 1.0397,1.160167 0.482866,0.165047 0.919003,0.568837 1.201767,1.112633 0.302219,0.581208 0.610876,0.85357 0.967332,0.85357 0.347923,0 0.614861,0.225126 0.795918,0.671246 0.598319,1.474237 1.108428,1.930044 1.621643,1.449017 0.905572,-0.848775 4.526458,0.869698 4.526458,2.148261 0,0.37963 1.139097,0.9988 1.667197,0.90623 1.359848,-0.23836 3.076265,7.3547 1.841232,8.14523 -0.703833,0.45051 -0.93024,1.88837 -0.390959,2.48289 l 0.533643,0.58831 0.139519,-0.56781 c 0.122593,-0.49892 0.221085,-0.3986 0.811868,0.82695 0.497647,1.03235 0.747074,1.33054 0.959933,1.14757 0.297385,-0.25561 0.423112,-0.13672 0.925248,0.87492 0.133271,0.26849 0.769634,0.87262 1.414141,1.34248 0.644507,0.46988 2.020275,1.74339 3.057265,2.83005 1.036988,1.08664 2.231315,2.182 2.654059,2.43412 0.82968,0.49482 1.501318,1.9726 1.823068,4.01122 0.323915,2.05235 0.882281,2.4598 1.835715,1.33955 z"
       id="path17" /><path
       style="fill:#000000;stroke-width:0.679882"
       d="m 78.858801,130.45818 c 1.008988,-0.79705 1.007978,-0.81746 -0.116836,-2.36137 -0.830894,-1.14047 -0.95341,-1.49659 -1.193012,-3.46779 -0.504697,-4.15214 -0.357009,-3.78338 -1.515248,-3.78338 -2.08636,0 -2.368738,-0.16108 -3.109185,-1.77361 -0.374255,-0.81504 -1.1312,-1.9206 -1.6821,-2.45678 l -1.001638,-0.9749 v -3.13149 -3.1315 l -3.079131,-2.38183 c -2.934555,-2.26998 -3.11679,-2.46204 -3.881167,-4.09043 -0.441119,-0.93975 -1.241623,-2.3989 -1.778897,-3.242566 l -0.976863,-1.533935 0.297896,-7.497362 c 0.163843,-4.123545 0.368937,-10.18844 0.455765,-13.47754 0.09461,-3.58402 0.331723,-7.255188 0.591762,-9.162257 0.238641,-1.750141 0.361666,-3.480123 0.273387,-3.844403 l -0.160506,-0.662328 h -3.753542 c -4.55765,0 -9.045256,-0.364234 -11.963165,-0.970983 C 44.034491,62.04964 44.028553,62.046675 35.47809,57.128198 32.52172,55.427606 24.447299,51.029611 24.393158,51.09043 c -0.03319,0.03728 -0.295384,0.891582 -0.582659,1.89845 -0.287276,1.006867 -0.775663,2.279678 -1.085304,2.828469 -0.842433,1.493081 -0.746248,1.814683 1.027851,3.436698 2.032497,1.858262 3.445534,2.850398 5.296663,3.718947 0.813514,0.3817 1.874981,1.023906 2.358816,1.427124 0.483834,0.403218 1.358794,0.858065 1.944353,1.010772 l 1.064655,0.27765 v 1.772842 c 0,1.151212 0.119471,1.949496 0.340721,2.276647 0.187395,0.277091 0.469008,1.042952 0.625804,1.701912 0.156797,0.658959 0.427696,1.414769 0.601998,1.679575 0.174301,0.264807 0.316911,0.902415 0.316911,1.416906 0,0.687215 0.247333,1.312648 0.932082,2.356966 0.626525,0.95552 0.916254,1.651286 0.883798,2.122387 -0.03797,0.551192 0.04582,0.692577 0.392383,0.662083 0.388439,-0.03418 0.426026,0.09577 0.317125,1.096411 -0.115827,1.064281 -0.06885,1.188669 0.75207,1.991486 0.481587,0.470966 1.164399,1.376481 1.517361,2.012255 0.352961,0.635771 0.897915,1.294964 1.211008,1.464862 0.612041,0.332121 2.376433,2.641365 2.61637,3.424312 0.08628,0.281529 0.754564,0.762203 1.633659,1.175029 1.574494,0.739385 1.512178,0.641411 1.90392,2.993331 0.211033,1.266983 1.576818,2.744632 2.747012,2.971992 0.483779,0.09399 0.828667,0.256254 0.766417,0.360573 -0.06225,0.104319 0.04473,0.325403 0.237741,0.491302 0.193009,0.165898 0.350924,0.438128 0.350924,0.604961 0,0.649603 1.002903,1.571076 2.133019,1.959838 1.983732,0.6824 2.193941,1.45879 0.924115,3.41315 -1.26792,1.95143 -1.146753,3.52211 0.309644,4.01388 0.49068,0.16568 1.059669,0.56604 1.264422,0.88969 0.204752,0.32364 0.598703,0.59085 0.875449,0.5938 1.562944,0.0167 3.926199,2.2338 5.067686,4.75437 0.474358,1.04746 2.339695,2.9692 4.64512,4.78559 0.889868,0.7011 1.933156,1.87245 2.771897,3.11213 0.739725,1.09334 1.427492,1.98789 1.528369,1.98789 0.100876,0 0.421227,0.50696 0.711891,1.12658 1.369362,2.91913 5.087333,6.32712 6.062352,5.55689 z"
       id="path16" /><path
       style="fill:#000000;stroke-width:0.679882"
       d="m 83.592492,133.17213 c 0.149842,-0.67124 0.28262,-2.32991 0.295064,-3.68593 0.02577,-2.80821 0.319813,-4.00287 0.985235,-4.00287 0.588788,0 1.125646,-1.32335 1.485341,-3.66134 l 0.281643,-1.83066 2.768297,-0.0689 2.768297,-0.0688 0.245267,-0.66343 c 0.134903,-0.36487 0.379182,-1.21262 0.542845,-1.88386 0.295533,-1.21208 0.307565,-1.22383 1.754825,-1.71478 l 1.457248,-0.49432 -1.684037,-1.56156 -1.684037,-1.56155 0.132799,-1.60545 c 0.07304,-0.88301 0.246924,-2.64874 0.386403,-3.92388 l 0.253605,-2.31842 -0.746772,-1.09726 c -2.639881,-3.878863 -2.790456,-10.13415 -0.312869,-12.997181 0.550614,-0.636283 1.506779,-2.174044 2.124801,-3.417247 0.843374,-1.696519 1.632622,-2.818778 3.163906,-4.498866 1.872772,-2.054769 2.597377,-3.293768 2.597377,-4.441258 0,-1.553651 -4.056155,0.80513 -4.600343,2.675243 -0.30677,1.054215 -0.750607,1.897061 -1.362369,2.587144 l -0.907369,1.023532 -1.500653,-0.951275 C 91.21164,82.486021 89.973444,81.763213 89.285455,81.402983 88.597466,81.042752 87.469227,80.213896 86.778259,79.56108 86.08729,78.908264 85.428175,78.374142 85.313555,78.374142 c -0.358932,0 -0.717998,-0.945589 -0.955089,-2.51521 -0.508591,-3.36707 -2.208197,-6.271996 -3.669602,-6.271996 -0.406801,0 -0.84046,-0.50032 -1.88058,-2.169661 -1.162604,-1.865923 -1.578595,-2.317012 -2.971505,-3.222218 -1.148807,-0.746571 -1.589962,-1.170132 -1.517527,-1.457006 0.182685,-0.723517 -0.282657,-1.222957 -1.088826,-1.16861 -0.475274,0.03204 -1.116457,-0.189427 -1.747644,-0.603642 -0.966402,-0.634198 -1.104658,-0.654248 -4.511611,-0.654248 -3.962965,0 -3.800767,-0.08418 -3.800767,1.972676 0,0.911061 -0.08631,1.200482 -0.358009,1.200482 -0.252512,0 -0.319856,0.161837 -0.228534,0.549201 0.07121,0.30206 -0.101242,2.196801 -0.38323,4.210536 -0.336556,2.403426 -0.535571,5.170828 -0.579261,8.054939 -0.0366,2.416482 -0.20285,7.633886 -0.369431,11.594229 -0.466197,11.083442 -0.553125,10.010662 1.008702,12.448546 0.731054,1.14112 1.451398,2.47486 1.600763,2.96389 0.159275,0.52147 0.594093,1.12707 1.051525,1.46454 0.428972,0.31647 1.909284,1.4482 3.289581,2.51496 l 2.509631,1.93957 v 3.2349 3.2349 l 0.858943,0.67853 c 0.555243,0.43862 1.094095,1.22134 1.524017,2.21374 0.743836,1.71704 0.68479,1.67741 2.814738,1.8893 l 1.544668,0.15367 0.283374,2.93536 c 0.282627,2.92763 0.286137,2.93908 1.331875,4.34659 1.362684,1.8341 1.360304,1.78734 0.137936,2.71109 l -1.04946,0.79308 1.638658,1.54973 c 2.223195,2.10253 3.358503,2.16418 3.795602,0.20612 z"
       id="path15" /><path
       style="fill:#000000;stroke-width:0.679882"
       d="m 120.00453,149.64815 c 0.22689,0 0.49733,-0.13731 0.60098,-0.30511 1.30013,-2.10475 5.88323,-1.86996 5.95565,0.30511 0.007,0.22549 0.23683,0.071 0.59701,-0.4022 0.52816,-0.69391 0.75047,-0.78519 2.29525,-0.9424 0.94075,-0.0957 2.31708,-0.43649 3.05851,-0.75722 0.74143,-0.32074 1.61639,-0.58317 1.94435,-0.58317 0.83546,0 0.85329,-1.34356 0.0274,-2.06558 -0.47625,-0.41636 -4.2908,-7.69798 -4.03267,-7.69798 0.44208,0 0.85299,0.4288 1.07324,1.11999 0.33928,1.0647 0.63778,1.05915 0.83244,-0.0154 0.14073,-0.77695 0.0464,-0.97091 -1.12285,-2.30911 -2.03408,-2.32793 -2.73251,-4.91545 -1.96921,-7.29553 0.22092,-0.68886 0.33612,-1.36233 0.25599,-1.4966 -0.49926,-0.83665 -0.12056,-13.0475 0.42378,-13.66432 1.62767,-1.8444 3.62735,-8.95908 2.37857,-8.46279 -0.20503,0.0815 -0.5232,0.14816 -0.70703,0.14816 -0.18384,0 -0.33424,0.15302 -0.33424,0.34002 0,0.58367 -0.64951,0.63142 -1.30666,0.0961 -0.47384,-0.38602 -1.04178,-0.53292 -2.29456,-0.59351 -1.22681,-0.0593 -1.79372,-0.20225 -2.15458,-0.54321 -0.67478,-0.63757 -1.99513,-1.30375 -2.3322,-1.17671 -0.15324,0.0578 -0.444,-0.0435 -0.64613,-0.22497 -0.20212,-0.1815 -0.99754,-0.52792 -1.76759,-0.76983 -1.26147,-0.39628 -1.45871,-0.55158 -1.99206,-1.56841 -0.32559,-0.62072 -0.76754,-1.330909 -0.98212,-1.578189 -0.33281,-0.383538 -1.2467,-3.32793 -1.70201,-5.483563 -0.12561,-0.594686 -0.44708,-0.818587 -1.8277,-1.27299 -0.21462,-0.07064 -0.46396,-0.492837 -0.55411,-0.938217 -0.0901,-0.44538 -0.77636,-1.749754 -1.52495,-2.898609 -0.74858,-1.14885 -1.60789,-2.789968 -1.90959,-3.646921 -0.78927,-2.241889 -2.17559,-4.274792 -3.43744,-5.04067 -0.58144,-0.352906 -1.30033,-1.040597 -1.59754,-1.528203 -0.44207,-0.725285 -0.80043,-0.967236 -1.97,-1.330077 -1.98097,-0.614569 -2.21765,-0.483356 -2.71182,1.50341 -0.38819,1.560708 -0.53485,1.786116 -2.422492,3.723132 -1.669253,1.712917 -2.183524,2.436032 -3.038891,4.272953 -0.566287,1.216108 -1.499804,2.753869 -2.074482,3.417247 -2.675756,3.088738 -2.624121,8.833966 0.114901,12.784087 0.873331,1.25947 0.894702,1.71078 0.301338,6.3626 l -0.326919,2.56294 1.450381,1.34248 c 2.22948,2.06364 3.821358,3.71646 4.278476,4.4423 0.228232,0.3624 0.769039,0.77994 1.201798,0.92785 1.80676,0.61757 2.47325,3.00924 1.4725,5.28403 -0.19742,0.44875 -0.17013,0.66519 0.12672,1.00491 0.30914,0.35378 0.33453,0.61064 0.13883,1.4045 -0.48333,1.96068 -0.48828,1.9215 0.31848,2.51761 0.42409,0.31335 0.92055,0.66018 1.10327,0.77075 0.2762,0.16713 0.28202,0.32652 0.0345,0.94536 -0.37922,0.94817 -0.28674,1.13031 0.52894,1.0417 0.363,-0.0394 0.8243,0.0695 1.02512,0.24214 0.20082,0.17262 0.66347,0.2903 1.02812,0.26153 0.82799,-0.0653 1.52826,0.99713 1.76862,2.68343 0.0905,0.63518 0.36199,1.33104 0.60989,1.56339 0.2457,0.23029 0.44673,0.553 0.44673,0.71713 0,0.16413 0.15227,0.42929 0.33837,0.58926 0.1861,0.15996 0.41231,0.64023 0.50269,1.06726 0.0904,0.42704 0.56211,1.65514 1.0483,2.72914 0.97322,2.14986 1.40518,3.32828 1.57762,4.30387 0.32605,1.84464 3.36772,3.54445 3.36772,1.88203 0,-0.64966 0.53287,-0.66976 1.25539,-0.0473 0.36642,0.31564 0.91607,0.57389 1.22144,0.57389 0.52746,0 1.05196,0.82025 0.73465,1.14889 -0.0721,0.0747 -0.0189,0.35277 0.11816,0.61803 0.18225,0.3527 0.31934,0.40967 0.5102,0.21199 0.14353,-0.14866 0.44661,-0.27029 0.67349,-0.27029 z"
       id="path14" /><path
       style="fill:#000000;stroke-width:0.679882"
       d="m 181.4814,161.90025 c 4.69243,-0.63895 4.8337,-0.67452 4.91045,-1.23642 0.0712,-0.52156 0.16893,-0.56606 0.99178,-0.45175 1.01245,0.14064 2.11086,-0.91458 2.11086,-2.02788 0,-0.80528 0.89037,-1.94565 1.51911,-1.94565 0.67359,0 0.96917,-0.36339 1.19121,-1.46454 0.39569,-1.96233 1.29623,-2.0418 1.29623,-0.11437 0,0.93595 0.10183,1.39062 0.33194,1.48206 0.18257,0.0726 0.46058,0.45356 0.61779,0.84666 0.40704,1.01773 0.64836,0.8875 0.82405,-0.4447 0.0841,-0.63768 0.35573,-2.07427 0.60364,-3.19243 0.55763,-2.51514 0.55732,-2.55057 -0.0206,-2.36059 -0.37204,0.12229 -0.47136,0.0439 -0.47136,-0.37221 0,-0.28993 0.21211,-0.80643 0.47136,-1.14776 0.62983,-0.82928 0.59468,-1.02158 -0.17677,-0.96687 -0.79844,0.0566 -0.81454,-0.82965 -0.0308,-1.69369 0.43872,-0.48367 0.47078,-0.71912 0.32192,-2.36438 l -0.16533,-1.82722 0.94076,-1.30594 c 1.77127,-2.45883 2.64971,-6.39752 1.55768,-6.98418 -0.91699,-0.49263 -6.17719,-1.132 -6.8195,-0.8289 -0.32969,0.15558 -0.89781,0.28286 -1.26249,0.28286 -0.36469,0 -1.05984,0.27888 -1.54479,0.61972 -0.55837,0.39244 -2.07248,0.92251 -4.12872,1.44543 -4.58257,1.16538 -6.60362,2.32486 -6.60362,3.78853 0,0.42438 -0.15908,0.93636 -0.35351,1.13774 -0.41135,0.42602 -0.42027,0.68988 -0.12246,3.62262 0.22153,2.18145 0.2194,2.19652 -0.4047,2.87119 -0.49662,0.53685 -0.66089,1.0133 -0.78804,2.28561 -0.18202,1.82135 -1.65309,3.74046 -3.54421,4.62367 -1.07128,0.50032 -1.1227,0.66475 -0.32554,1.04092 0.76899,0.36288 0.75317,1.09585 -0.0375,1.74002 l -0.62676,0.5106 1.55008,1.58188 c 0.85254,0.87003 1.65554,1.58187 1.78443,1.58187 0.1289,0 0.30603,0.43936 0.39363,0.97636 0.19177,1.17557 -0.30414,1.1515 6.00982,0.29174 z"
       id="path13" /><path
       style="fill:#aaa;stroke-width:0.679882"
       d="m 100.92506,163.51362 c 0.28452,-0.29469 0.76284,-1.04607 1.06292,-1.66975 0.5573,-1.15825 2.11739,-2.67625 2.75046,-2.67625 0.52557,0 3.21102,-1.25151 3.21102,-1.49644 0,-0.1167 0.36494,-0.21218 0.81098,-0.21218 0.44602,0 0.87651,-0.10984 0.95662,-0.24409 0.0801,-0.13425 0.49032,-0.24409 0.91158,-0.24409 0.42125,0 0.97179,-0.16127 1.22341,-0.35837 0.25161,-0.1971 0.61657,-0.36532 0.811,-0.37381 0.47376,-0.0207 1.02234,-0.87134 1.37739,-2.13587 0.16021,-0.57055 0.39308,-1.03738 0.5175,-1.03738 0.12442,0 0.22622,-0.16476 0.22622,-0.36613 0,-0.20341 0.2095,-0.36613 0.47136,-0.36613 0.25925,0 0.47136,-0.10984 0.47136,-0.24409 0,-0.13425 0.26514,-0.24409 0.5892,-0.24409 0.32405,0 0.5892,-0.10984 0.5892,-0.24409 0,-0.13425 0.18559,-0.24775 0.41243,-0.25221 0.78741,-0.0155 1.53252,-0.88515 1.24128,-1.44875 -0.14249,-0.27575 -0.22819,-0.68974 -0.19044,-0.91999 0.046,-0.28088 -0.16833,-0.50083 -0.65156,-0.66848 -0.39611,-0.13742 -1.00593,-0.44462 -1.35515,-0.68265 -0.55696,-0.37962 -0.63496,-0.38567 -0.63496,-0.0493 0,0.21091 -0.28423,0.63668 -0.63162,0.94616 l -0.63163,0.56268 -1.24174,-1.36768 c -1.01233,-1.11501 -1.35464,-1.72844 -1.85285,-3.3204 -0.93762,-2.99597 -2.97016,-7.57038 -3.57905,-8.05494 -0.1687,-0.13425 -0.41505,-0.84177 -0.54744,-1.57228 -0.31733,-1.75094 -0.77862,-2.45518 -1.60817,-2.45518 -0.35997,0 -0.78129,-0.13135 -0.93629,-0.29188 -0.155,-0.16053 -0.6932,-0.26673 -1.196,-0.236 -1.00284,0.0613 -1.48661,-0.6382 -0.83108,-1.20166 0.65415,-0.56227 -0.52463,-1.9318 -1.66273,-1.9318 -0.36545,0 -0.11387,-1.57803 0.32384,-2.03137 0.37246,-0.38575 0.30963,-1.40582 -0.11665,-1.89366 -0.33708,-0.38577 -0.33708,-0.49141 0,-1.16653 0.87963,-1.76171 0.27331,-3.97603 -1.300118,-4.74806 -0.495652,-0.24319 -1.117816,-0.80519 -1.382578,-1.24887 -0.264762,-0.44368 -0.912767,-1.10235 -1.440019,-1.46372 l -0.958636,-0.65704 -1.221628,0.41327 c -1.495014,0.50574 -1.339027,0.34874 -1.599473,1.6099 -0.119985,0.58102 -0.391808,1.46829 -0.60406,1.97172 l -0.385909,0.91534 h -2.643855 -2.643856 l -0.285452,1.52555 c -0.492987,2.63467 -0.953913,3.8444 -1.464784,3.8444 -0.764576,0 -1.139242,1.38766 -1.139242,4.21942 0,5.49004 -1.138659,6.44114 -4.269604,3.56629 l -1.622378,-1.48967 v 1.26892 c 0,0.86313 0.145728,1.48089 0.455688,1.93172 0.250629,0.36454 0.529318,0.96662 0.619309,1.33796 0.105418,0.43501 0.44258,0.81296 0.947851,1.0625 l 0.784231,0.38732 -0.100653,1.58077 c -0.06019,0.94538 -0.245419,1.74644 -0.460822,1.99294 -0.630107,0.72111 -0.475874,1.79606 0.237433,1.65483 0.570175,-0.11288 0.579316,-0.0974 0.199152,0.33768 -0.374352,0.42842 -0.373677,0.48435 0.01115,0.92475 0.38971,0.44599 0.388229,0.4806 -0.03048,0.71268 -0.649324,0.3599 -0.668381,2.04214 -0.02988,2.63776 0.779713,0.72733 0.98312,1.54178 0.517997,2.07407 -0.327317,0.37459 -0.349334,0.56477 -0.124537,1.07575 0.15019,0.3414 0.273073,0.83868 0.273073,1.10507 0,0.26639 0.149512,0.54378 0.332249,0.6164 0.182738,0.0726 0.393456,0.38462 0.468264,0.69331 0.232017,0.95741 2.499,2.85191 2.499,2.0884 0,-0.45925 1.449726,-0.27767 1.56947,0.19657 0.06306,0.24975 0.598535,0.63651 1.235897,0.89267 1.003391,0.40327 2.85093,1.85363 2.85093,2.23804 0,0.0812 0.318167,0.52286 0.707043,0.98157 0.388868,0.4587 0.707035,0.93119 0.707035,1.04998 0,0.11878 0.556794,0.40732 1.237314,0.64119 0.680527,0.23386 1.97971,0.74882 2.887072,1.14435 1.357499,0.59174 3.346549,1.24398 4.183306,1.37175 0.0972,0.0149 0.40956,-0.21411 0.69409,-0.50879 z"
       id="path12" /><path
       style="fill:#bbbbbb;stroke-width:0.679882"
       d="m 102.41831,164.54982 c -0.2182,-0.36565 0.57111,-0.67336 2.23035,-0.86947 1.09088,-0.12894 1.61946,-0.31229 1.83988,-0.6382 0.17009,-0.25151 0.46233,-0.45728 0.64941,-0.45728 0.18708,0 0.34016,-0.13795 0.34016,-0.30655 0,-0.40815 1.32984,-0.99997 2.29183,-1.01994 0.42384,-0.009 0.77092,-0.0984 0.7713,-0.19907 3.8e-4,-0.10069 0.16311,-0.18307 0.36161,-0.18307 0.19851,0 0.42196,-0.16476 0.49658,-0.36613 0.1686,-0.45504 3.38473,-0.54136 3.38473,-0.0908 0,0.18211 0.30353,0.22501 0.89679,0.12676 0.62037,-0.10274 1.05694,-0.0323 1.41638,0.22841 0.69007,0.50059 4.16996,0.66259 4.53186,0.21097 0.13887,-0.1733 0.67005,-0.38815 1.18041,-0.47745 0.51035,-0.0893 0.98775,-0.26265 1.06089,-0.38521 0.0731,-0.12258 0.42368,-0.22285 0.77898,-0.22285 0.35529,0 0.77326,-0.13181 0.9288,-0.29292 0.33095,-0.34274 0.38191,-1.41571 0.0673,-1.41571 -0.11857,0 -0.29011,-0.8238 -0.38121,-1.83067 -0.0911,-1.00687 -0.25923,-1.83066 -0.37363,-1.83066 -0.27364,0 -0.26797,-0.81424 0.008,-1.11061 0.11865,-0.12754 0.25122,-0.50649 0.29461,-0.84211 0.0441,-0.34092 0.30649,-0.7137 0.59465,-0.8447 0.92414,-0.42013 0.81329,-1.77142 -0.25893,-3.15615 -0.41674,-0.53821 -1.90201,-0.44013 -3.09549,0.20442 -0.38311,0.2069 -0.82539,0.37686 -0.98286,0.37768 -0.15746,6.9e-4 -0.39982,0.22118 -0.53857,0.48968 -0.14457,0.27978 -0.49347,0.48818 -0.81728,0.48818 -0.35804,0 -0.61983,0.17883 -0.71463,0.48818 -0.0823,0.2685 -0.34831,0.48818 -0.59117,0.48818 -0.24286,0 -0.50143,0.10031 -0.57459,0.22291 -0.14936,0.25029 -2.46607,1.48571 -2.78606,1.48571 -0.39947,0 -0.84151,0.66602 -1.1487,1.73076 -0.36267,1.25704 -1.05678,2.17467 -1.64493,2.17467 -0.22822,0 -0.4805,0.10984 -0.56061,0.24408 -0.0801,0.13425 -0.38564,0.24409 -0.67896,0.24409 -0.84622,0 -2.64486,0.64702 -5.4487,1.96003 -0.51849,0.24281 -1.1018,0.50956 -1.29624,0.59278 -1.29403,0.55389 -2.12404,1.44835 -2.72402,2.93555 -0.19509,0.48356 -0.51043,0.94109 -0.70077,1.01674 -0.47722,0.18966 -0.43503,0.7577 0.0663,0.89341 0.7456,0.2018 1.26757,0.17234 1.12678,-0.0636 z"
       id="path11" /><path
       style="fill:#000000;stroke-width:0.679882"
       d="m 168.34228,185.92172 c 0.22684,-0.17833 0.41244,-0.44029 0.41244,-0.58211 0,-0.14183 0.12415,-0.30072 0.2759,-0.35311 0.20761,-0.0717 0.21172,-0.35714 0.0166,-1.15335 -0.21018,-0.8576 -0.19547,-1.12422 0.0776,-1.40706 0.4722,-0.48906 0.42543,-0.69479 -0.27875,-1.22605 l -0.61567,-0.4645 0.49447,-1.00383 c 0.27196,-0.55211 0.59903,-1.07076 0.72681,-1.15255 0.12779,-0.0818 0.44357,-0.64328 0.70174,-1.24775 1.00727,-2.35836 1.32171,-2.6233 2.9095,-2.45141 0.77312,0.0837 2.61271,0.0808 4.08798,-0.006 l 2.68231,-0.15866 -0.0999,-1.48743 c -0.0939,-1.39821 -0.14413,-1.50611 -0.83665,-1.79877 -0.40519,-0.17123 -0.94667,-0.67987 -1.20327,-1.13031 -0.33234,-0.58337 -0.95635,-1.06635 -2.16904,-1.67886 -2.69118,-1.35924 -2.9192,-1.62375 -1.40789,-1.63323 l 1.23732,-0.008 -0.0279,-2.25782 c -0.0154,-1.24181 -0.0949,-2.53243 -0.17677,-2.86805 -0.2251,-0.9227 -3.49978,-4.07188 -3.85334,-3.70569 -0.42073,0.43573 -0.89128,0.34606 -0.89128,-0.16985 0,-1.09446 -1.00819,-1.17204 -4.88343,-0.3758 -0.31223,0.0641 -0.91001,0.6972 -1.48178,1.56922 l -0.95841,1.46167 h -1.65299 c -1.40221,0 -1.98901,0.14813 -3.86791,0.97636 -1.21821,0.537 -2.42618,0.97636 -2.68439,0.97636 -0.2582,0 -0.52497,0.093 -0.59281,0.20671 -0.18543,0.31073 -2.21088,-0.0757 -2.678,-0.51097 -0.22447,-0.20916 -0.81645,-0.77547 -1.3155,-1.25846 -0.56794,-0.54967 -1.141,-0.87852 -1.53192,-0.87908 -0.3435,-5.1e-4 -0.9718,-0.22019 -1.39621,-0.48818 -0.49141,-0.31032 -1.18718,-0.48727 -1.91587,-0.48727 -1.78555,0 -3.79365,-1.04311 -3.79365,-1.97061 0,-0.47227 -0.1198,-0.71437 -0.35352,-0.71437 -0.215,0 -0.35351,-0.22714 -0.35351,-0.57971 0,-1.12611 -0.29649,-2.09236 -0.68078,-2.21868 -0.44615,-0.14666 -0.98367,-1.13457 -1.66478,-3.05975 -0.73047,-2.06469 -3.56902,-5.59126 -3.1433,-3.90518 0.0982,0.38887 0.007,0.48793 -0.44879,0.48793 -0.3146,0 -1.25496,0.2778 -2.08968,0.61734 -0.84122,0.34217 -2.2841,0.68494 -3.23717,0.76903 -1.86191,0.16427 -2.97801,0.94955 -2.3909,1.68223 0.18807,0.23469 0.12683,0.38405 -0.24107,0.58797 -0.27125,0.15034 -0.4312,0.37722 -0.35544,0.50416 0.0757,0.12694 -0.13396,0.35901 -0.46602,0.5157 -0.78979,0.3727 -1.1238,1.65252 -0.81803,3.13443 0.12466,0.60412 0.29142,1.51029 0.37059,2.01373 0.0792,0.50343 0.23604,0.91533 0.3486,0.91533 1.15128,0 -0.18169,2.31733 -1.4451,2.51228 -1.46654,0.22629 -2.65691,0.61801 -2.84723,0.93694 -0.23425,0.39253 -3.51612,0.60292 -3.51612,0.22539 0,-0.14155 -0.25888,-0.25736 -0.57529,-0.25736 -0.31641,0 -0.64839,-0.12251 -0.73775,-0.27224 -0.10031,-0.1681 -0.57557,-0.22403 -1.24229,-0.1462 -0.80006,0.0934 -1.14766,0.03 -1.34165,-0.24477 -0.28867,-0.40888 -2.70204,-0.23208 -2.70204,0.19794 0,0.12165 -0.15908,0.22119 -0.35352,0.22119 -0.19443,0 -0.35352,0.17124 -0.35352,0.38053 0,0.21323 -0.1133,0.30802 -0.25771,0.21558 -0.42014,-0.26893 -3.04179,0.4031 -3.04179,0.77973 0,0.18303 -0.15308,0.33278 -0.34016,0.33278 -0.18709,0 -0.47874,0.20378 -0.64812,0.45285 -0.21751,0.31985 -0.78706,0.517 -1.93915,0.67124 -2.27561,0.30467 -1.48598,2.19095 1.5854,3.78721 0.54368,0.28256 1.21214,0.7256 1.48547,0.98452 0.27333,0.25892 2.18233,1.08968 4.24223,1.84614 2.05989,0.75645 4.06343,1.61729 4.4523,1.91297 0.48925,0.37201 1.433,0.65343 3.06382,0.91362 3.69601,0.58967 5.06712,1.1297 5.06712,1.99575 0,0.20913 0.44506,0.38936 1.23731,0.50106 0.68053,0.0959 1.50246,0.36155 1.82652,0.59023 1.41004,0.99504 2.73128,1.509 4.21287,1.63879 1.67689,0.14689 3.09788,0.55169 4.66473,1.32883 1.24239,0.61621 2.55834,0.84875 2.77246,0.48992 0.0889,-0.14904 0.61972,-0.27098 1.1795,-0.27098 0.60402,0 1.1337,-0.14464 1.30289,-0.35578 0.1568,-0.19568 1.18742,-0.70848 2.29027,-1.13958 1.11362,-0.43531 2.47197,-1.18331 3.05505,-1.68233 3.53258,-3.02333 11.82813,0.43543 18.56818,7.74184 2.03658,2.20771 1.95524,2.15391 2.5498,1.68647 z"
       id="path10" /><path
       style="fill:#000000;stroke-width:0.679882"
       d="m 166.00062,184.90994 c -1.4069,-1.6117 -4.23213,-4.1776 -6.52318,-5.92441 -4.05176,-3.08927 -10.83645,-4.18215 -12.34123,-1.98792 -0.15924,0.2322 -1.29027,0.82378 -2.51339,1.31462 -1.22313,0.49083 -2.35198,1.05229 -2.50856,1.24769 -0.16877,0.21062 -0.69913,0.35527 -1.30249,0.35527 -0.55978,0 -1.09089,0.12252 -1.18024,0.27225 -0.22111,0.37053 -1.96162,0.14494 -2.95784,-0.38336 -1.58223,-0.83905 -2.71338,-1.16394 -4.44926,-1.27792 -1.53933,-0.10107 -2.00268,-0.25291 -3.58802,-1.17583 -1.24654,-0.72568 -2.23543,-1.11347 -3.13686,-1.23012 -0.94049,-0.12169 -1.28276,-0.26125 -1.1985,-0.48868 0.26559,-0.71681 -2.10635,-1.67206 -5.15682,-2.07683 -1.51119,-0.20051 -2.32443,-0.43714 -2.82815,-0.82288 -0.38887,-0.29779 -2.39241,-1.16036 -4.4523,-1.91681 -2.0599,-0.75646 -3.9689,-1.58722 -4.24223,-1.84614 -0.27333,-0.25892 -0.94179,-0.70196 -1.48547,-0.98452 -0.54367,-0.28256 -1.51964,-1.06384 -2.16881,-1.73617 -0.94333,-0.97699 -1.33764,-1.22242 -1.96397,-1.22242 -0.43101,0 -0.99915,-0.15633 -1.26254,-0.3474 -0.2634,-0.19107 -1.119424,-0.5193 -1.902292,-0.7294 -0.782868,-0.2101 -1.996198,-0.64199 -2.696299,-0.95977 -0.700094,-0.31777 -1.988776,-0.8223 -2.863737,-1.12117 -0.874961,-0.29887 -1.590835,-0.64046 -1.590835,-0.75909 0,-0.11864 -0.318167,-0.591 -0.707035,-1.04971 -0.388875,-0.4587 -0.707042,-0.93842 -0.707042,-1.06604 0,-0.40346 -1.843579,-1.78558 -2.946404,-2.2089 -0.583075,-0.22382 -1.060142,-0.53626 -1.060142,-0.69431 0,-0.46245 -0.78383,-0.65078 -1.062982,-0.2554 -0.486426,0.68897 -3.179245,-1.30387 -3.179245,-2.35282 0,-0.16441 -0.212112,-0.43612 -0.471359,-0.6038 -0.271738,-0.17576 -0.471359,-0.56922 -0.471359,-0.92907 0,-0.34331 -0.114509,-0.8458 -0.254464,-1.11664 -0.19888,-0.38487 -0.167038,-0.59249 0.145773,-0.95047 0.493703,-0.56501 0.304271,-1.57257 -0.36545,-1.94379 -0.607204,-0.33656 -0.683838,-2.53441 -0.100165,-2.87271 0.327124,-0.1896 0.328694,-0.24767 0.01401,-0.51815 -0.194921,-0.16755 -0.296332,-0.46135 -0.225356,-0.65291 0.0767,-0.20701 -0.01549,-0.34829 -0.227262,-0.34829 -0.469291,0 -0.250508,-1.95187 0.262653,-2.34327 0.251585,-0.19188 0.312411,-0.52147 0.213154,-1.15495 -0.07639,-0.48754 -0.03982,-0.94985 0.08127,-1.02736 0.442068,-0.28296 0.201353,-0.76325 -0.574606,-1.14648 -0.501991,-0.24793 -0.852686,-0.63153 -0.951994,-1.04132 -0.08648,-0.35684 -0.432551,-1.07969 -0.76906,-1.60633 -0.517573,-0.81001 -0.589115,-1.12918 -0.464378,-2.07173 0.198865,-1.50264 -0.119394,-2.06625 -2.680146,-4.74631 -1.168198,-1.22262 -2.377079,-2.73786 -2.686403,-3.36719 -0.309324,-0.62932 -0.844663,-1.41695 -1.189642,-1.75028 -0.344979,-0.33334 -0.849607,-0.99238 -1.121396,-1.46454 -0.731823,-1.27135 -1.528302,-2.10958 -3.365131,-3.54154 -2.199232,-1.71447 -3.534131,-3.19608 -4.015267,-4.45654 -0.217788,-0.57056 -0.467881,-1.03738 -0.555761,-1.03738 -0.08788,0 -0.56252,-0.5587 -1.054754,-1.24155 -0.921906,-1.27892 -2.323049,-2.16013 -3.450903,-2.17034 -0.38503,-0.004 -0.673627,-0.1975 -0.824878,-0.55455 -0.143926,-0.33977 -0.615086,-0.67454 -1.235501,-0.87787 -1.560468,-0.51142 -1.673969,-2.20583 -0.300987,-4.49331 1.098165,-1.82961 0.995784,-2.24626 -0.710276,-2.89052 -1.318819,-0.49803 -2.33502,-1.371401 -2.353789,-2.022962 -0.01324,-0.459633 -0.811836,-1.297663 -1.41939,-1.48948 -1.601457,-0.50561 -2.624658,-1.94218 -2.921688,-4.102034 -0.155382,-1.129868 -0.203519,-1.189338 -1.409977,-1.741928 -0.687006,-0.314666 -1.424222,-0.831741 -1.638257,-1.149042 -1.54879,-2.296069 -2.341818,-3.286789 -2.950349,-3.685832 -0.385607,-0.252864 -0.917651,-0.919958 -1.182321,-1.482443 -0.264671,-0.562478 -0.918316,-1.446595 -1.452546,-1.964697 -0.842144,-0.81672 -0.952252,-1.040782 -0.827903,-1.684717 0.111953,-0.57974 0.03637,-0.820372 -0.344449,-1.096627 -0.331245,-0.24029 -0.466156,-0.568394 -0.420219,-1.021963 0.04608,-0.455008 -0.253177,-1.178061 -0.938416,-2.267335 -0.760322,-1.208629 -0.970333,-1.74678 -0.85975,-2.203101 0.09415,-0.388489 -0.02802,-0.940719 -0.342579,-1.548557 -0.268897,-0.519608 -0.488905,-1.167675 -0.488905,-1.440149 0,-0.272474 -0.212111,-0.905283 -0.471358,-1.406242 -0.342512,-0.661856 -0.471359,-1.377172 -0.471359,-2.616829 V 65.932629 L 33.117199,65.65498 c -0.58556,-0.152707 -1.460519,-0.607555 -1.944353,-1.010773 -0.483835,-0.403217 -1.562984,-1.05364 -2.39811,-1.445383 -0.835125,-0.391743 -2.017386,-1.08353 -2.627246,-1.537305 l -1.108836,-0.825045 -0.122731,0.652872 c -0.0675,0.359081 -0.245372,1.147154 -0.395265,1.751274 -0.271423,1.09392 -0.15923,2.795589 0.216455,3.283092 0.213521,0.277072 0.523299,3.045783 0.451968,4.039581 -0.139405,1.942267 -0.04593,2.446619 0.578595,3.12174 0.350219,0.378594 0.636762,0.862654 0.636762,1.075691 0,0.213036 0.265139,0.456259 0.589198,0.540494 0.324059,0.08424 0.589198,0.256885 0.589198,0.383665 0,0.12678 0.61182,0.921027 1.359599,1.764995 1.355364,1.529709 2.175591,2.975363 2.175591,3.834493 0,0.28136 0.156101,0.439942 0.412324,0.418875 0.25792,-0.02121 0.439858,0.166139 0.485851,0.500289 0.04568,0.331836 0.268111,0.562992 0.587202,0.610223 0.420208,0.0622 0.543608,0.293807 0.678176,1.272874 0.16728,1.217067 0.452811,1.599746 1.19862,1.606444 0.297622,0.0028 0.414328,0.194958 0.409674,0.674982 -0.01064,1.097287 0.270439,2.501911 0.500654,2.501911 0.117912,0 0.149479,0.267837 0.07015,0.595185 -0.192137,0.792848 0.457593,1.89567 1.439493,2.443328 0.703079,0.392144 0.791842,0.568345 0.936481,1.859047 0.150393,1.342028 0.205535,1.441476 0.938095,1.69187 0.583265,0.199365 0.750088,0.377808 0.665692,0.712054 -0.08378,0.331803 0.23939,0.688523 1.262027,1.393028 0.971684,0.669405 1.396804,1.12589 1.450238,1.557232 0.04157,0.335622 0.253686,0.754315 0.471358,0.930427 0.369657,0.29908 0.368557,0.34111 -0.01667,0.63713 -0.502776,0.38634 -0.534824,1.34472 -0.06641,1.98611 0.190313,0.26059 0.349397,0.74068 0.353519,1.06685 0.01095,0.86648 1.235136,3.41695 1.716171,3.57548 0.226841,0.0748 0.413982,0.32075 0.415868,0.54664 0.0063,0.76006 0.724068,2.56221 1.305367,3.2777 0.621549,0.76503 0.722533,1.63053 0.327263,2.80486 -0.370564,1.10094 0.0093,2.27714 0.947064,2.93228 1.001752,0.69987 1.187745,0.69031 1.187745,-0.061 0,-1.1426 1.786984,-0.0162 2.254652,1.42116 0.09177,0.28205 0.280959,0.39067 0.517028,0.29685 0.51226,-0.20359 0.817022,0.38445 0.373377,0.72043 -0.695588,0.52677 -0.168109,2.04516 0.85823,2.47047 1.940043,0.80395 1.918463,2.4559 -0.06006,4.59777 -2.17256,2.35193 -2.899776,2.09075 -3.362569,-1.20765 -0.250327,-1.78412 -0.899913,-2.93723 -2.053256,-3.64481 -0.551118,-0.33812 -1.527816,-1.27917 -2.17044,-2.09123 -0.642623,-0.81206 -1.767276,-1.87807 -2.49923,-2.36891 -0.731955,-0.49085 -1.572052,-1.25705 -1.866885,-1.70268 -0.609018,-0.92052 -0.946659,-1.03539 -0.946659,-0.32207 0,0.27121 -0.157119,0.48818 -0.353518,0.48818 -0.237364,0 -0.353519,-0.24587 -0.353519,-0.74831 0,-0.9409 -0.378063,-1.69258 -0.851299,-1.69258 -0.868492,0 -2.236644,-2.185 -1.553851,-2.48157 1.44651,-0.62829 1.545296,-5.98941 0.132428,-7.18686 -0.175863,-0.14905 -0.31975,-0.56095 -0.31975,-0.91533 0,-0.52127 -0.110417,-0.64434 -0.578109,-0.64434 -0.879102,0 -1.657774,-0.45437 -2.096307,-1.22324 -0.901186,-1.580009 -3.411202,-2.807464 -3.768582,-1.842919 -0.333478,0.900038 -1.59239,-0.04636 -2.171592,-1.632552 -0.08579,-0.23493 -0.390243,-0.427156 -0.676564,-0.427156 -0.361924,0 -0.682066,-0.297568 -1.050422,-0.976355 -0.29141,-0.536995 -0.667832,-0.976356 -0.836492,-0.976356 -0.569449,0 -1.548619,-1.001243 -1.548619,-1.58353 0,-0.400655 -0.370251,-0.869463 -1.237316,-1.566662 -1.802465,-1.449364 -1.826514,-1.473892 -1.826514,-1.863255 0,-0.457502 0.342088,-0.455523 0.786297,0.0048 1.372609,1.42159 3.477423,0.809121 3.85001,-1.120293 0.07491,-0.387903 0.278293,-0.705288 0.451965,-0.705288 0.437458,0 0.844701,-0.836265 0.553906,-1.137438 -0.146536,-0.151718 -0.133047,-0.517155 0.03783,-1.024835 0.213521,-0.63436 0.198196,-0.870556 -0.07819,-1.205037 -0.189069,-0.228813 -0.527292,-0.905763 -0.751608,-1.504333 -0.224315,-0.59857 -0.599843,-1.227588 -0.834507,-1.397818 -0.234664,-0.17023 -0.493828,-0.586672 -0.57592,-0.925426 -0.08209,-0.338754 -0.244645,-0.615917 -0.361227,-0.615917 -0.116582,0 -0.448898,-0.397042 -0.738481,-0.882316 -0.289583,-0.485274 -0.86997,-1.030943 -1.28975,-1.212597 -0.41978,-0.181653 -1.074479,-0.635872 -1.454885,-1.009374 -0.380408,-0.373501 -1.081338,-1.03268 -1.557624,-1.464843 -0.56956,-0.516795 -0.865974,-0.997202 -0.865974,-1.403512 0,-0.339769 -0.113687,-0.617762 -0.252637,-0.617762 -0.167992,0 -0.199668,-0.439085 -0.09454,-1.310503 0.155689,-1.290562 -0.353193,-2.350834 -1.128294,-2.350834 -0.115124,0 -0.135067,-0.606208 -0.04461,-1.35604 0.165523,-1.372069 -0.378768,-2.549384 -1.178618,-2.549384 -0.159451,0 -0.226156,-0.364785 -0.172755,-0.944732 0.09658,-1.048871 -0.339352,-2.11437 -1.251617,-3.059188 -0.328999,-0.340738 -0.527194,-0.764736 -0.452149,-0.967279 0.07349,-0.198338 0.01566,-0.588877 -0.128507,-0.867866 -0.225494,-0.436375 -0.195099,-0.507251 0.217532,-0.507251 0.625145,0 0.610449,-0.06564 -0.227388,-1.01569 -0.38887,-0.440951 -0.707037,-1.061986 -0.707037,-1.380077 0,-0.318091 -0.206733,-0.850543 -0.459405,-1.183226 -0.252673,-0.332684 -0.530643,-1.096871 -0.61771,-1.698194 -0.08707,-0.601324 -0.284119,-1.225173 -0.437893,-1.386334 -0.153775,-0.16116 -0.305272,-0.82189 -0.33666,-1.46829 -0.03139,-0.646399 -0.157882,-1.44989 -0.281097,-1.785535 -0.123216,-0.335645 -0.224028,-0.712954 -0.224028,-0.838463 0,-0.136551 2.886882,-0.228199 7.188218,-0.228199 h 7.188218 v 1.077462 1.077463 l 3.638741,1.971358 c 5.355377,2.901379 13.558898,7.546295 14.520437,8.221618 1.889688,1.327195 6.323298,1.999204 14.65916,2.22191 l 5.597383,0.149543 V 61.69135 60.067767 h 3.893391 c 3.746938,0 3.9285,0.02295 4.826742,0.610223 0.513343,0.335622 1.237187,0.610222 1.608544,0.610222 0.766993,0 1.579356,0.777606 1.378551,1.319569 -0.09312,0.251328 0.351002,0.671291 1.458256,1.378928 1.372415,0.877098 1.778715,1.316951 2.943883,3.186988 1.040011,1.669166 1.473654,2.169455 1.880451,2.169455 1.478139,0 3.692674,3.901831 3.692674,6.506192 0,0.875253 0.569006,2.281014 0.923282,2.281014 0.112276,0 0.755845,0.513735 1.430158,1.141635 0.674314,0.627899 2.409191,1.826733 3.855282,2.664075 l 2.629252,1.52244 0.825103,-0.823589 c 0.59468,-0.593584 0.94939,-1.27304 1.270136,-2.432965 l 0.445026,-1.609378 1.531698,-0.719287 c 0.842433,-0.395608 1.759743,-0.719287 2.038467,-0.719287 0.278717,0 0.90103,-0.208181 1.38291,-0.462624 1.29306,-0.682764 3.57086,0.109856 4.61799,1.606946 0.38893,0.556062 0.91932,1.080769 1.17866,1.166015 1.02579,0.33719 2.76979,2.72553 3.64617,4.993304 0.4692,1.214129 1.39591,2.995372 2.05935,3.958325 0.66344,0.962947 1.3273,2.183317 1.47525,2.711933 0.22353,0.798632 0.42139,1.015358 1.17034,1.281943 1.15054,0.409518 1.0021,0.158488 1.6714,2.826436 1.22367,4.8777 3.89814,8.07445 6.25787,7.47994 0.26399,-0.0665 2.03164,1.01559 2.45961,1.50569 0.37748,0.43228 0.71957,0.51416 2.14825,0.51416 1.34243,0 1.82513,0.10252 2.29852,0.48817 0.75143,0.61216 1.11409,0.62057 1.11409,0.0258 0,-0.32076 0.16239,-0.45821 0.53028,-0.44882 0.29165,0.007 0.71587,-0.0708 0.94272,-0.17398 1.39928,-0.63619 -0.6191,7.21813 -2.37009,9.22296 -0.35389,0.4052 -0.40289,1.25397 -0.43222,7.48601 -0.0219,4.64256 -0.12719,7.32432 -0.31026,7.89883 -0.2243,0.70389 -0.20596,1.15775 0.0961,2.37899 0.20533,0.83003 0.31893,1.56547 0.25247,1.6343 -0.16083,0.16658 0.88263,1.61456 2.14711,2.97951 1.03685,1.11921 1.14457,2.23326 0.31823,3.29089 -0.29861,0.3822 1.77325,4.54328 2.67378,5.36996 1.72636,1.5848 4.16495,5.10059 4.16495,6.00475 0,0.63646 1.03655,2.38224 1.56154,2.62998 0.46597,0.21989 0.55958,0.4443 0.55958,1.34158 0,0.73262 0.11315,1.12248 0.35352,1.21802 0.20711,0.0823 0.35352,0.44822 0.35352,0.8835 0,1.00748 2.11616,2.06118 3.65844,1.82165 0.80999,-0.1258 1.12864,-0.042 1.89807,0.49897 0.61446,0.43204 1.1421,0.61716 1.57279,0.55182 0.35646,-0.0541 0.64812,-0.0115 0.64812,0.0946 0,2.23902 4.06613,3.01518 7.6106,1.45275 1.92859,-0.85015 2.5087,-0.99795 3.91688,-0.99795 h 1.65299 l 0.95841,-1.46168 c 0.58468,-0.8917 1.16249,-1.49952 1.48178,-1.55873 0.28785,-0.0533 1.37181,-0.26542 2.4088,-0.47122 2.0302,-0.40291 3.11271,-0.0819 3.0316,0.89887 -0.0193,0.23315 0.40663,-0.0584 1.06008,-0.72559 1.14404,-1.16813 1.0556,-1.80752 -0.25001,-1.80752 -0.68894,0 -0.0456,-0.83176 1.08796,-1.40668 2.15469,-1.09278 3.14587,-2.32551 3.33419,-4.14668 0.13351,-1.29121 0.31721,-1.83018 0.86396,-2.53482 0.57526,-0.74137 0.6504,-0.98005 0.43797,-1.39114 -0.41577,-0.8046 -0.3264,-4.82849 0.12301,-5.53886 0.20869,-0.32986 0.31841,-0.76443 0.24384,-0.96572 -0.39333,-1.06155 2.48704,-2.63143 6.80063,-3.70652 1.97399,-0.49198 3.58059,-1.0354 3.99921,-1.35268 1.32584,-1.00493 4.18661,-1.2733 7.65702,-0.71833 2.99587,0.47909 2.93322,0.41084 2.75565,3.00178 -0.15674,2.28698 -0.40898,3.01214 -1.68587,4.84658 -1.02215,1.46847 -1.15102,2.00636 -0.8215,3.42897 0.26528,1.14523 0.24905,1.2405 -0.33329,1.95727 -0.80987,0.99682 -0.82005,1.6658 -0.0229,1.50799 0.74961,-0.14841 0.8067,0.56442 0.11785,1.4714 -0.61046,0.80376 -0.59488,0.90975 0.13372,0.90975 0.46536,0 0.57707,0.0986 0.48377,0.42716 -0.32701,1.15151 -0.82936,3.47361 -0.96368,4.45462 -0.29835,2.1789 -0.38662,2.44089 -0.82234,2.44089 -0.24665,0 -0.54363,-0.29901 -0.70989,-0.71473 -0.15722,-0.39309 -0.43523,-0.77409 -0.61779,-0.84665 -0.23131,-0.0919 -0.33194,-0.5503 -0.33194,-1.51196 0,-1.59927 -0.52681,-1.5403 -0.82132,0.0919 -0.2053,1.13787 -0.50355,1.51686 -1.19371,1.51686 -0.66146,0 -1.52016,1.0619 -1.52016,1.87987 0,1.19611 -1.1342,2.32029 -2.15989,2.14082 -0.84065,-0.1471 -0.90394,-0.11692 -0.90394,0.43099 0,0.58547 -0.0344,0.59365 -5.47954,1.30293 l -5.47955,0.71375 -0.0681,2.13578 -0.0681,2.13578 h -0.69786 c -1.08799,0 -0.83414,0.33513 0.89297,1.17892 1.10335,0.53903 1.75337,1.03748 2.12124,1.62659 0.29173,0.46716 0.87798,0.9998 1.30278,1.18362 0.76897,0.33277 0.7726,0.3424 0.82592,2.19451 l 0.0536,1.86028 -4.29361,0.0666 -4.29362,0.0666 -0.83358,1.59302 c -0.45848,0.87617 -1.07183,1.97457 -1.36299,2.44089 -0.65064,1.04203 -0.6585,1.2583 -0.0598,1.64553 0.50257,0.32505 0.63356,1.14446 0.22479,1.40611 -0.24265,0.15532 -0.18327,1.07741 0.11935,1.85324 0.0873,0.22387 -0.005,0.56076 -0.21274,0.77586 -0.20189,0.20909 -0.36707,0.44293 -0.36707,0.51965 0,0.2287 -0.92484,1.11583 -1.16326,1.11583 -0.12131,0 -0.94324,-0.82788 -1.82652,-1.83974 z"
       id="path1" /></g></svg>
